<svg xmlns="http://www.w3.org/2000/svg" xmlns:xlink="http://www.w3.org/1999/xlink" viewBox="0 0 738 348" width="738" height="348"><path d="M 278.500,163.406 C 275.500,162.406 275.579,161.919 272.500,161.406" stroke-width="5.038" stroke="white" fill="none" stroke-linecap="round"></path><path d="M 272.500,161.406 C 269.579,160.919 269.408,160.794 266.500,161.406" stroke-width="4.335" stroke="white" fill="none" stroke-linecap="round"></path><path d="M 266.500,161.406 C 259.908,162.794 259.304,162.090 253.500,165.406" stroke-width="3.411" stroke="white" fill="none" stroke-linecap="round"></path><path d="M 253.500,165.406 C 245.304,170.090 245.247,170.660 238.500,177.406" stroke-width="2.833" stroke="white" fill="none" stroke-linecap="round"></path><path d="M 238.500,177.406 C 232.247,183.660 232.154,183.870 227.500,191.406" stroke-width="2.711" stroke="white" fill="none" stroke-linecap="round"></path><path d="M 227.500,191.406 C 221.654,200.870 221.386,201.044 217.500,211.406" stroke-width="2.508" stroke="white" fill="none" stroke-linecap="round"></path><path d="M 217.500,211.406 C 215.386,217.044 215.787,217.387 215.500,223.406" stroke-width="3.002" stroke="white" fill="none" stroke-linecap="round"></path><path d="M 215.500,223.406 C 215.287,227.887 213.726,230.059 216.500,232.406" stroke-width="3.392" stroke="white" fill="none" stroke-linecap="round"></path><path d="M 216.500,232.406 C 220.226,235.559 223.009,235.654 228.500,234.406" stroke-width="3.864" stroke="white" fill="none" stroke-linecap="round"></path><path d="M 228.500,234.406 C 234.009,233.154 233.593,231.033 238.500,227.406" stroke-width="3.367" stroke="white" fill="none" stroke-linecap="round"></path><path d="M 238.500,227.406 C 245.093,222.533 245.357,222.812 251.500,217.406" stroke-width="2.932" stroke="white" fill="none" stroke-linecap="round"></path><path d="M 251.500,217.406 C 257.857,211.812 257.625,211.526 263.500,205.406" stroke-width="2.906" stroke="white" fill="none" stroke-linecap="round"></path><path d="M 263.500,205.406 C 269.625,199.026 269.956,199.254 275.500,192.406" stroke-width="2.800" stroke="white" fill="none" stroke-linecap="round"></path><path d="M 275.500,192.406 C 278.456,188.754 278.272,188.544 280.500,184.406" stroke-width="3.326" stroke="white" fill="none" stroke-linecap="round"></path><path d="M 280.500,184.406 C 281.772,182.044 282.988,179.650 282.500,179.406" stroke-width="3.936" stroke="white" fill="none" stroke-linecap="round"></path><path d="M 282.500,179.406 C 281.988,179.150 279.983,181.034 278.500,183.406" stroke-width="4.657" stroke="white" fill="none" stroke-linecap="round"></path><path d="M 278.500,183.406 C 274.983,189.034 275.796,189.574 272.500,195.406" stroke-width="3.483" stroke="white" fill="none" stroke-linecap="round"></path><path d="M 272.500,195.406 C 269.296,201.074 268.853,200.819 265.500,206.406" stroke-width="3.205" stroke="white" fill="none" stroke-linecap="round"></path><path d="M 265.500,206.406 C 262.853,210.819 263.224,211.048 260.500,215.406" stroke-width="3.408" stroke="white" fill="none" stroke-linecap="round"></path><path d="M 260.500,215.406 C 258.224,219.048 254.734,221.130 255.500,222.406" stroke-width="3.631" stroke="white" fill="none" stroke-linecap="round"></path><path d="M 255.500,222.406 C 256.234,223.630 259.528,221.509 263.500,220.406" stroke-width="4.416" stroke="white" fill="none" stroke-linecap="round"></path><path d="M 263.500,220.406 C 268.528,219.009 268.445,218.670 273.500,217.406" stroke-width="3.655" stroke="white" fill="none" stroke-linecap="round"></path><path d="M 273.500,217.406 C 276.445,216.670 276.596,217.277 279.500,216.406" stroke-width="3.940" stroke="white" fill="none" stroke-linecap="round"></path><path d="M 279.500,216.406 C 286.596,214.277 286.427,213.680 293.500,211.406" stroke-width="3.232" stroke="white" fill="none" stroke-linecap="round"></path><path d="M 293.500,211.406 C 300.427,209.180 300.537,209.525 307.500,207.406" stroke-width="3.026" stroke="white" fill="none" stroke-linecap="round"></path><path d="M 307.500,207.406 C 312.037,206.025 315.581,205.325 316.500,204.406" stroke-width="3.363" stroke="white" fill="none" stroke-linecap="round"></path><path d="M 316.500,204.406 C 317.081,203.825 313.310,203.603 310.500,204.406" stroke-width="4.445" stroke="white" fill="none" stroke-linecap="round"></path><path d="M 310.500,204.406 C 306.310,205.603 306.306,206.080 302.500,208.406" stroke-width="3.885" stroke="white" fill="none" stroke-linecap="round"></path><path d="M 302.500,208.406 C 297.306,211.580 297.043,211.397 292.500,215.406" stroke-width="3.371" stroke="white" fill="none" stroke-linecap="round"></path><path d="M 292.500,215.406 C 288.543,218.897 288.321,219.017 285.500,223.406" stroke-width="3.434" stroke="white" fill="none" stroke-linecap="round"></path><path d="M 285.500,223.406 C 283.821,226.017 281.580,229.534 283.500,229.406" stroke-width="4.268" stroke="white" fill="none" stroke-linecap="round"></path><path d="M 283.500,229.406 C 289.080,229.034 292.341,226.486 300.500,222.406" stroke-width="3.816" stroke="white" fill="none" stroke-linecap="round"></path><path d="M 300.500,222.406 C 303.341,220.986 302.973,220.372 305.500,218.406" stroke-width="3.955" stroke="white" fill="none" stroke-linecap="round"></path><path d="M 305.500,218.406 C 311.973,213.372 312.755,214.152 318.500,208.406" stroke-width="3.050" stroke="white" fill="none" stroke-linecap="round"></path><path d="M 318.500,208.406 C 323.755,203.152 323.516,202.734 327.500,196.406" stroke-width="3.007" stroke="white" fill="none" stroke-linecap="round"></path><path d="M 327.500,196.406 C 332.016,189.234 332.032,189.142 335.500,181.406" stroke-width="2.868" stroke="white" fill="none" stroke-linecap="round"></path><path d="M 335.500,181.406 C 338.532,174.642 338.371,174.503 340.500,167.406" stroke-width="2.901" stroke="white" fill="none" stroke-linecap="round"></path><path d="M 340.500,167.406 C 341.371,164.503 341.944,161.184 341.500,161.406" stroke-width="3.671" stroke="white" fill="none" stroke-linecap="round"></path><path d="M 341.500,161.406 C 340.944,161.684 340.270,165.042 338.500,168.406" stroke-width="4.442" stroke="white" fill="none" stroke-linecap="round"></path><path d="M 338.500,168.406 C 335.270,174.542 335.180,174.519 331.500,180.406" stroke-width="3.333" stroke="white" fill="none" stroke-linecap="round"></path><path d="M 331.500,180.406 C 327.680,186.519 327.126,186.189 323.500,192.406" stroke-width="3.062" stroke="white" fill="none" stroke-linecap="round"></path><path d="M 323.500,192.406 C 320.126,198.189 319.977,198.213 317.500,204.406" stroke-width="3.119" stroke="white" fill="none" stroke-linecap="round"></path><path d="M 317.500,204.406 C 315.977,208.213 315.500,208.445 315.500,212.406" stroke-width="3.602" stroke="white" fill="none" stroke-linecap="round"></path><path d="M 315.500,212.406 C 315.500,215.445 315.545,216.731 317.500,218.406" stroke-width="4.331" stroke="white" fill="none" stroke-linecap="round"></path><path d="M 317.500,218.406 C 319.045,219.731 320.151,219.047 322.500,218.406" stroke-width="4.342" stroke="white" fill="none" stroke-linecap="round"></path><path d="M 322.500,218.406 C 325.651,217.547 325.635,215.406 328.500,215.406" stroke-width="4.570" stroke="white" fill="none" stroke-linecap="round"></path><path d="M 328.500,215.406 C 330.635,215.406 330.333,217.203 332.500,218.406" stroke-width="5.008" stroke="white" fill="none" stroke-linecap="round"></path><path d="M 332.500,218.406 C 334.833,219.703 334.906,220.190 337.500,220.406" stroke-width="4.420" stroke="white" fill="none" stroke-linecap="round"></path><path d="M 337.500,220.406 C 340.906,220.690 341.084,220.260 344.500,219.406" stroke-width="4.044" stroke="white" fill="none" stroke-linecap="round"></path><path d="M 344.500,219.406 C 349.084,218.260 349.197,218.362 353.500,216.406" stroke-width="3.730" stroke="white" fill="none" stroke-linecap="round"></path><path d="M 353.500,216.406 C 360.197,213.362 360.222,213.269 366.500,209.406" stroke-width="3.195" stroke="white" fill="none" stroke-linecap="round"></path><path d="M 366.500,209.406 C 373.222,205.269 373.536,205.548 379.500,200.406" stroke-width="2.930" stroke="white" fill="none" stroke-linecap="round"></path><path d="M 379.500,200.406 C 388.036,193.048 388.234,193.017 395.500,184.406" stroke-width="2.609" stroke="white" fill="none" stroke-linecap="round"></path><path d="M 395.500,184.406 C 401.734,177.017 401.642,176.773 406.500,168.406" stroke-width="2.621" stroke="white" fill="none" stroke-linecap="round"></path><path d="M 406.500,168.406 C 410.642,161.273 410.375,161.046 413.500,153.406" stroke-width="2.720" stroke="white" fill="none" stroke-linecap="round"></path><path d="M 413.500,153.406 C 414.875,150.046 416.646,146.865 415.500,146.406" stroke-width="3.472" stroke="white" fill="none" stroke-linecap="round"></path><path d="M 415.500,146.406 C 414.146,145.865 410.377,147.841 408.500,151.406" stroke-width="4.313" stroke="white" fill="none" stroke-linecap="round"></path><path d="M 408.500,151.406 C 405.377,157.341 406.715,158.357 405.500,165.406" stroke-width="3.347" stroke="white" fill="none" stroke-linecap="round"></path><path d="M 405.500,165.406 C 404.215,172.857 404.019,172.874 403.500,180.406" stroke-width="3.014" stroke="white" fill="none" stroke-linecap="round"></path><path d="M 403.500,180.406 C 403.019,187.374 403.769,187.417 403.500,194.406" stroke-width="3.063" stroke="white" fill="none" stroke-linecap="round"></path><path d="M 403.500,194.406 C 403.269,200.417 402.816,200.399 402.500,206.406" stroke-width="3.164" stroke="white" fill="none" stroke-linecap="round"></path><path d="M 402.500,206.406 C 402.316,209.899 402.500,209.906 402.500,213.406" stroke-width="3.654" stroke="white" fill="none" stroke-linecap="round"></path><path d="M 402.500,213.406 C 402.500,215.906 403.977,216.930 402.500,218.406" stroke-width="4.113" stroke="white" fill="none" stroke-linecap="round"></path><path d="M 402.500,218.406 C 399.977,220.930 398.643,220.970 394.500,221.406" stroke-width="4.750" stroke="white" fill="none" stroke-linecap="round"></path><path d="M 394.500,221.406 C 389.143,221.970 388.991,220.995 383.500,220.406" stroke-width="3.725" stroke="white" fill="none" stroke-linecap="round"></path><path d="M 383.500,220.406 C 374.991,219.495 374.957,219.688 366.500,218.406" stroke-width="3.028" stroke="white" fill="none" stroke-linecap="round"></path><path d="M 366.500,218.406 C 358.457,217.188 358.503,216.888 350.500,215.406" stroke-width="2.918" stroke="white" fill="none" stroke-linecap="round"></path><path d="M 350.500,215.406 C 345.003,214.388 344.929,214.684 339.500,213.406" stroke-width="3.235" stroke="white" fill="none" stroke-linecap="round"></path><path d="M 339.500,213.406 C 336.429,212.684 335.660,213.297 333.500,211.406" stroke-width="3.754" stroke="white" fill="none" stroke-linecap="round"></path><path d="M 333.500,211.406 C 331.660,209.797 330.263,207.997 331.500,206.406" stroke-width="4.451" stroke="white" fill="none" stroke-linecap="round"></path><path d="M 331.500,206.406 C 333.763,203.497 335.812,203.849 340.500,202.406" stroke-width="3.789" stroke="white" fill="none" stroke-linecap="round"></path><path d="M 340.500,202.406 C 348.812,199.849 348.949,200.160 357.500,198.406" stroke-width="3.017" stroke="white" fill="none" stroke-linecap="round"></path><path d="M 357.500,198.406 C 368.449,196.160 368.485,196.322 379.500,194.406" stroke-width="2.580" stroke="white" fill="none" stroke-linecap="round"></path><path d="M 379.500,194.406 C 391.485,192.322 391.474,192.236 403.500,190.406" stroke-width="2.326" stroke="white" fill="none" stroke-linecap="round"></path><path d="M 403.500,190.406 C 414.474,188.736 414.522,189.053 425.500,187.406" stroke-width="2.457" stroke="white" fill="none" stroke-linecap="round"></path><path d="M 425.500,187.406 C 434.522,186.053 434.500,185.906 443.500,184.406" stroke-width="2.631" stroke="white" fill="none" stroke-linecap="round"></path><path d="M 443.500,184.406 C 449.500,183.406 449.473,183.076 455.500,182.406" stroke-width="3.053" stroke="white" fill="none" stroke-linecap="round"></path><path d="M 455.500,182.406 C 458.473,182.076 458.527,182.677 461.500,182.406" stroke-width="3.785" stroke="white" fill="none" stroke-linecap="round"></path><path d="M 461.500,182.406 C 464.027,182.177 463.976,181.743 466.500,181.406" stroke-width="4.616" stroke="white" fill="none" stroke-linecap="round"></path><path d="M 466.500,181.406 C 471.476,180.743 471.826,181.742 476.500,180.406" stroke-width="4.376" stroke="white" fill="none" stroke-linecap="round"></path><path d="M 476.500,180.406 C 478.826,179.742 479.056,179.332 480.500,177.406" stroke-width="4.355" stroke="white" fill="none" stroke-linecap="round"></path><path d="M 480.500,177.406 C 482.056,175.332 482.065,175.015 482.500,172.406" stroke-width="4.252" stroke="white" fill="none" stroke-linecap="round"></path><path d="M 482.500,172.406 C 483.065,169.015 482.768,168.884 482.500,165.406" stroke-width="4.009" stroke="white" fill="none" stroke-linecap="round"></path><path d="M 482.500,165.406 C 482.268,162.384 483.147,161.053 481.500,159.406" stroke-width="4.144" stroke="white" fill="none" stroke-linecap="round"></path><path d="M 481.500,159.406 C 480.147,158.053 478.582,158.235 476.500,159.406" stroke-width="4.648" stroke="white" fill="none" stroke-linecap="round"></path><path d="M 476.500,159.406 C 470.582,162.735 471.067,163.991 465.500,168.406" stroke-width="3.413" stroke="white" fill="none" stroke-linecap="round"></path><path d="M 465.500,168.406 C 456.567,175.491 457.028,176.202 447.500,182.406" stroke-width="2.637" stroke="white" fill="none" stroke-linecap="round"></path><path d="M 447.500,182.406 C 435.528,190.202 435.152,189.693 422.500,196.406" stroke-width="2.169" stroke="white" fill="none" stroke-linecap="round"></path><path d="M 422.500,196.406 C 410.652,202.693 410.500,202.406 398.500,208.406" stroke-width="2.231" stroke="white" fill="none" stroke-linecap="round"></path><path d="M 398.500,208.406 C 388.500,213.406 374.750,220.281 378.500,218.406" stroke-width="2.366" stroke="white" fill="none" stroke-linecap="round"></path></svg>